HIERARCHY
ROOT Hips
{
	OFFSET -14.64140 90.27770 -84.91600
	CHANNELS 6 Xposition Yposition Zposition Zrotation Xrotation Yrotation
	JOINT Spine
	{
		OFFSET 0.00000 13.20850 -1.60436
		CHANNELS 3 Zrotation Xrotation Yrotation
		JOINT Spine1
		{
			OFFSET 0.00000 8.61716 0.00000
			CHANNELS 3 Zrotation Xrotation Yrotation
			JOINT Spine2
			{
				OFFSET 0.00000 8.61717 0.00000
				CHANNELS 3 Zrotation Xrotation Yrotation
				JOINT Spine3
				{
					OFFSET 0.00000 8.61717 0.00000
					CHANNELS 3 Zrotation Xrotation Yrotation
					JOINT Neck
					{
						OFFSET 0.00000 11.07920 1.10792
						CHANNELS 3 Zrotation Xrotation Yrotation
						JOINT Neck1
						{
							OFFSET 0.00000 7.08032 0.00000
							CHANNELS 3 Zrotation Xrotation Yrotation
							JOINT Head
							{
								OFFSET 0.00000 7.08031 0.00000
								CHANNELS 3 Zrotation Xrotation Yrotation
								End site
								{
									OFFSET 0.00000 0.00000 0.00000
								}
							}
						}
					}
					JOINT RightShoulder
					{
						OFFSET -0.01000 7.91373 5.19711
						CHANNELS 3 Zrotation Xrotation Yrotation
						JOINT RightArm
						{
							OFFSET -18.41580 0.00000 0.00000
							CHANNELS 3 Zrotation Xrotation Yrotation
							JOINT RightForeArm
							{
								OFFSET -29.11090 0.00000 0.00000
								CHANNELS 3 Zrotation Xrotation Yrotation
								JOINT RightHand
								{
									OFFSET -24.65040 0.00000 0.00000
									CHANNELS 3 Zrotation Xrotation Yrotation
									JOINT RightHandThumb1
									{
										OFFSET -5.35114 -0.85590 3.97906
										CHANNELS 3 Zrotation Xrotation Yrotation
										JOINT RightHandThumb2
										{
											OFFSET -4.52789 0.00000 0.00000
											CHANNELS 3 Zrotation Xrotation Yrotation
											JOINT RightHandThumb3
											{
												OFFSET -2.46976 0.00000 0.00000
												CHANNELS 3 Zrotation Xrotation Yrotation
												End site
												{
													OFFSET 0.00000 0.00000 0.00000
												}
											}
										}
									}
									JOINT RightHandIndex1
									{
										OFFSET -14.26970 0.00000 2.88139
										CHANNELS 3 Zrotation Xrotation Yrotation
										JOINT RightHandIndex2
										{
											OFFSET -5.48836 0.00000 0.00000
											CHANNELS 3 Zrotation Xrotation Yrotation
											JOINT RightHandIndex3
											{
												OFFSET -3.01859 0.00000 0.00000
												CHANNELS 3 Zrotation Xrotation Yrotation
												End site
												{
													OFFSET 0.00000 0.00000 0.00000
												}
											}
										}
									}
									JOINT RightHandMiddle1
									{
										OFFSET -14.26970 0.00000 -0.09147
										CHANNELS 3 Zrotation Xrotation Yrotation
										JOINT RightHandMiddle2
										{
											OFFSET -6.17441 0.00000 0.00000
											CHANNELS 3 Zrotation Xrotation Yrotation
											JOINT RightHandMiddle3
											{
												OFFSET -3.56743 0.00000 0.00000
												CHANNELS 3 Zrotation Xrotation Yrotation
												End site
												{
													OFFSET 0.00000 0.00000 0.00000
												}
											}
										}
									}
									JOINT RightHandRing1
									{
										OFFSET -12.69180 0.00000 -3.06433
										CHANNELS 3 Zrotation Xrotation Yrotation
										JOINT RightHandRing2
										{
											OFFSET -5.62556 0.00000 0.00000
											CHANNELS 3 Zrotation Xrotation Yrotation
											JOINT RightHandRing3
											{
												OFFSET -3.56744 0.00000 0.00000
												CHANNELS 3 Zrotation Xrotation Yrotation
												End site
												{
													OFFSET 0.00000 0.00000 0.00000
												}
											}
										}
									}
									JOINT RightHandPinky1
									{
										OFFSET -11.11390 0.00000 -6.03719
										CHANNELS 3 Zrotation Xrotation Yrotation
										JOINT RightHandPinky2
										{
											OFFSET -4.52789 0.00000 0.00000
											CHANNELS 3 Zrotation Xrotation Yrotation
											JOINT RightHandPinky3
											{
												OFFSET -2.46976 0.00000 0.00000
												CHANNELS 3 Zrotation Xrotation Yrotation
												End site
												{
													OFFSET 0.00000 0.00000 0.00000
												}
											}
										}
									}
								}
							}
						}
					}
					JOINT LeftShoulder
					{
						OFFSET 0.01000 7.91373 5.19711
						CHANNELS 3 Zrotation Xrotation Yrotation
						JOINT LeftArm
						{
							OFFSET 18.41580 0.00000 0.00000
							CHANNELS 3 Zrotation Xrotation Yrotation
							JOINT LeftForeArm
							{
								OFFSET 29.11090 0.00000 0.00000
								CHANNELS 3 Zrotation Xrotation Yrotation
								JOINT LeftHand
								{
									OFFSET 24.65040 0.00000 0.00000
									CHANNELS 3 Zrotation Xrotation Yrotation
									JOINT LeftHandThumb1
									{
										OFFSET 5.35114 -0.85590 3.97906
										CHANNELS 3 Zrotation Xrotation Yrotation
										JOINT LeftHandThumb2
										{
											OFFSET 4.52789 0.00000 0.00000
											CHANNELS 3 Zrotation Xrotation Yrotation
											JOINT LeftHandThumb3
											{
												OFFSET 2.46977 0.00000 0.00000
												CHANNELS 3 Zrotation Xrotation Yrotation
												End site
												{
													OFFSET 0.00000 0.00000 0.00000
												}
											}
										}
									}
									JOINT LeftHandIndex1
									{
										OFFSET 14.26970 0.00000 2.88139
										CHANNELS 3 Zrotation Xrotation Yrotation
										JOINT LeftHandIndex2
										{
											OFFSET 5.48836 0.00000 0.00000
											CHANNELS 3 Zrotation Xrotation Yrotation
											JOINT LeftHandIndex3
											{
												OFFSET 3.01859 0.00000 0.00000
												CHANNELS 3 Zrotation Xrotation Yrotation
												End site
												{
													OFFSET 0.00000 0.00000 0.00000
												}
											}
										}
									}
									JOINT LeftHandMiddle1
									{
										OFFSET 14.26970 0.00000 -0.09147
										CHANNELS 3 Zrotation Xrotation Yrotation
										JOINT LeftHandMiddle2
										{
											OFFSET 6.17440 0.00000 0.00000
											CHANNELS 3 Zrotation Xrotation Yrotation
											JOINT LeftHandMiddle3
											{
												OFFSET 3.56744 0.00000 0.00000
												CHANNELS 3 Zrotation Xrotation Yrotation
												End site
												{
													OFFSET 0.00000 0.00000 0.00000
												}
											}
										}
									}
									JOINT LeftHandRing1
									{
										OFFSET 12.69180 0.00000 -3.06433
										CHANNELS 3 Zrotation Xrotation Yrotation
										JOINT LeftHandRing2
										{
											OFFSET 5.62556 0.00000 0.00000
											CHANNELS 3 Zrotation Xrotation Yrotation
											JOINT LeftHandRing3
											{
												OFFSET 3.56744 0.00000 0.00000
												CHANNELS 3 Zrotation Xrotation Yrotation
												End site
												{
													OFFSET 0.00000 0.00000 0.00000
												}
											}
										}
									}
									JOINT LeftHandPinky1
									{
										OFFSET 11.11390 0.00000 -6.03719
										CHANNELS 3 Zrotation Xrotation Yrotation
										JOINT LeftHandPinky2
										{
											OFFSET 4.52789 0.00000 0.00000
											CHANNELS 3 Zrotation Xrotation Yrotation
											JOINT LeftHandPinky3
											{
												OFFSET 2.46976 0.00000 0.00000
												CHANNELS 3 Zrotation Xrotation Yrotation
												End site
												{
													OFFSET 0.00000 0.00000 0.00000
												}
											}
										}
									}
								}
							}
						}
					}
					JOINT pCube4
					{
						OFFSET 0.00000 10.91090 1.10792
						CHANNELS 3 Zrotation Xrotation Yrotation
						End site
						{
							OFFSET 0.00000 0.00000 0.00000
						}
					}
				}
			}
		}
	}
	JOINT RightUpLeg
	{
		OFFSET -9.98441 0.00000 0.00000
		CHANNELS 3 Zrotation Xrotation Yrotation
		JOINT RightLeg
		{
			OFFSET 0.00000 -42.11790 0.00000
			CHANNELS 3 Zrotation Xrotation Yrotation
			JOINT RightFoot
			{
				OFFSET 0.00000 -45.00020 -0.00001
				CHANNELS 3 Zrotation Xrotation Yrotation
				JOINT RightForeFoot
				{
					OFFSET 0.00000 -3.74820 0.00000
					CHANNELS 3 Zrotation Xrotation Yrotation
					JOINT RightToeBase
					{
						OFFSET 0.00000 0.06325 14.43120
						CHANNELS 3 Zrotation Xrotation Yrotation
						End site
						{
							OFFSET 0.00000 0.00000 0.00000
						}
					}
				}
			}
		}
	}
	JOINT LeftUpLeg
	{
		OFFSET 9.98441 0.00000 0.00000
		CHANNELS 3 Zrotation Xrotation Yrotation
		JOINT LeftLeg
		{
			OFFSET 0.00000 -42.11800 0.00000
			CHANNELS 3 Zrotation Xrotation Yrotation
			JOINT LeftFoot
			{
				OFFSET 0.00000 -45.00070 0.00000
				CHANNELS 3 Zrotation Xrotation Yrotation
				JOINT LeftForeFoot
				{
					OFFSET 0.00000 -3.74824 0.00000
					CHANNELS 3 Zrotation Xrotation Yrotation
					JOINT LeftToeBase
					{
						OFFSET 0.00000 0.06325 14.43110
						CHANNELS 3 Zrotation Xrotation Yrotation
						End site
						{
							OFFSET 0.00000 0.00000 0.00000
						}
					}
				}
			}
		}
	}
}
MOTION
Frames: 4
Frame Time: 0.050000
-0.01340140893140758 0.0391346471991129 -0.03264178545558893 -0.012150681247064971 -0.008744464135774191 -0.00721162132154584 4.517786190568606 2.424729107018652 -2.0852501462725144 -0.6718416236500895 3.555545885962517 0.35854215913861653 -0.7175295532744135 -1.157698401234514 1.5660248099385978 0.016736234725679727 -0.2858337337381655 -0.20436056735897262 0.7083697833862497 11.930150724588987 -3.4061244607589276 0.26702740184886364 -0.6151439265103881 -9.171399642330554 1.4551903101645776 -16.944801907217414 -0.8213497568134697 -9.06495042557591 3.2241713460830645 -15.948553903993965 75.62197502296175 21.328337274402422 15.628312407755931 33.014725051419475 9.282073601471566 87.47519117532 18.831324932158648 -0.38160814484193495 -7.735746456409724 4.57258194634113 -0.1339839656637507 -1.612038922334219 0.014092987644597522 0.007324004927979669 -56.26100571033692 0.021586133333206324 -0.019305245362518434 -56.23576672941041 -38.754393158592954 0.036040946050914784 0.0005849831844180803 -0.02035074373649518 -0.009710375076759703 0.019963234369449464 0.008410826418353903 0.03654768654957581 0.008074146430562075 -36.69947462761176 0.01502375663328457 -0.014122620979856679 0.008180980936353612 0.015115392806274268 -0.01765095188274187 -0.03296526889326091 0.0005195842543959347 0.0064622773041723555 -19.79140152822594 -0.014073137456864003 -0.0343625395188757 -0.04803772521801808 0.02350917169666894 0.019252871755765146 -0.023261098061645696 -0.03763264366345169 0.02875086065573818 24.02295765442957 0.016592017344576156 -0.020888913392952062 28.85278445325091 0.040182754105394895 -0.010194859234899453 28.846663696885464 -0.005960986545739086 -0.006458127084288476 8.130796029078171 2.0320096804355763 13.826740894847093 -74.15470902687042 26.619163672956212 -10.22763633528141 -30.003411371254003 8.27534863743638 -80.59701320289949 -24.46336308842195 -8.477152700620866 6.053688684839464 -0.5071251253435142 0.04101691862880205 -8.161945393882212 0.01902697427360961 -0.008493306803832963 44.5248394015062 -0.020814977153342674 0.007210509640029148 44.59799313473245 12.418713253702034 0.024923989463819046 -0.011666103790147462 0.02095574159692225 -0.01747452270478164 0.030159793545174722 -0.019925540335752993 0.01944328059163636 -0.047245933711611926 11.07019389534446 -0.02307833964871706 -0.030792908400854278 -0.015511355791672314 -0.021585159391196877 0.009386765166450189 -0.02407547065303835 0.04455819684548854 -0.022792975220803785 4.812262699767111 -0.013742722039280302 0.04648277300338868 -0.027317330319225726 0.04009965128774799 -0.032827125781664225 -0.036881605022234136 0.005123033568738799 -0.026857577159727586 -5.599194498705648 0.026152430964375098 -0.0054234929210719455 -6.733914380471149 -0.0033092837633505426 -0.011168899328989814 -6.767916590169965 0.040421231070379655 0.023419760665747427 0.026924782261193953 -0.0337335909439909 -0.012776310507182519 8.033814262304084 3.508892588061561 -19.23815776412224 0.045729650012689936 10.382659442955886 0.05858831537317012 -5.62811604744153 -15.678292619262162 3.18680042210048 0.03899257447263341 0.047541310514640854 0.009283051411614078 -0.013838012665152718 4.692728246929039 0.03443926073728278 12.477898908681983 -8.2135305980468 6.862719876106258 0.013448320817395235 46.375614612945526 0.049747502117809886 -4.332417258859272 -14.789334233170806 -3.8477642871000004 -0.03508489429436378 0.008921284099563498 -0.015346572524400609 -0.02301992862314046 -10.76152209767915 0.03583045524541573 
-0.03923019463917307 0.039388613704700974 -0.020857782660543372 0.008227512875507556 0.04095387207886729 -0.039322397520838714 4.648225416718728 2.4650623757083463 -2.0954912850918617 -0.6867823546149736 3.557441527904612 0.4099851964163857 -0.6871761095697247 -1.1459211910736071 1.531705588151506 -0.08402070058174327 -0.3861714647428459 -0.2722388341333266 0.6697325618899205 11.965063944531908 -3.217699279363339 0.30580362498126845 -0.5489847036478226 -8.621589600377 1.4650057923822783 -16.851926185149438 -0.754582643922385 -9.321213010007005 3.3327346268428717 -16.207609862276854 77.06777987826027 19.832217690546177 15.342287433053778 27.592155916693724 8.124602479748948 87.45175481407372 18.322621097803125 -0.422631511984498 -7.025078807499391 4.503762168107304 -0.14083055899074726 -1.6126415930679536 -0.046493457632818334 0.006410432120756164 -56.19837943811671 0.0454258707752826 -0.03816785189198769 -56.22175447994766 -38.81087564285917 -0.03410396788876252 0.041997678962817156 -0.029233478150217346 -0.02552548868031167 -0.01133907744207958 -0.009354193284669994 0.029305977443174813 -0.007664156924263177 -36.67858250616703 0.006914017420735739 -0.02344374070243862 -0.01739011417467189 -0.0012349722113836916 -0.038938482867478114 -0.04601440534975641 -0.029602042373524068 0.006960609464113621 -19.71459489860031 0.019368370503759186 0.01576246358284094 -0.035427961033561196 -0.027273376492114046 0.02238810696481614 -0.038705232866499496 0.013590418554553526 -0.02251420310606098 24.062551982012025 -0.005354919251599749 0.01613154065757948 28.826953079752954 0.023846323334003303 0.045788387285894946 28.88634395832231 0.02555198543316883 0.04477713040908455 8.490993440278562 2.1442474158923996 14.022820156844283 -74.71682077431423 25.69888694075687 -10.690009965442947 -26.34041196166435 7.215839278072106 -78.54010676574099 -23.682645567759526 -8.116995755373445 5.7399030751343805 -0.500013366139346 0.02571060888022319 -8.148413409372147 0.04589079988207468 -0.007749410817979691 44.57087910925101 0.04307844005397925 0.01644905687812691 44.59686452591035 12.414913740662055 0.025185381317650645 0.040383918630306125 -0.024859359798084117 -0.0017461705434416912 -0.0313861332230995 -0.04194818470373425 -0.02723531873955375 0.03082842429588786 11.129159643118468 -0.004773268724647581 0.015330463695069298 0.023495527199388418 0.01741350432380965 -0.0191875855870373 -0.022556109895261457 -0.01010300700882371 0.004827886419254067 4.761586920626653 0.03865392586819301 -0.03000220013897232 0.011219835482256621 -0.027185204105071966 0.021775118413985703 -0.03459206400461772 0.01980178281213098 0.008876993977787542 -5.592843314411098 0.049946033154725775 -0.0059979989879057295 -6.67154096618115 0.04930967353537719 -0.03704458547891635 -6.685918922803118 0.02653931823730328 -0.03823127834487888 0.04452282110705271 -0.0397176817757081 -0.001193576114223144 8.018667353008357 3.4695099668606884 -19.18669351159003 0.048930713686914575 10.404108822388016 0.021094323559028804 -5.637049410111454 -15.69114574185931 3.2156869488861712 -0.003059005773292343 0.04171077990673728 -0.020382189946629714 -0.04231786637125674 4.727310237827316 0.00897081453201965 12.414081378214782 -8.252368690107318 6.844580376633321 0.034594548358460084 46.38343772170686 0.024606755065743433 -4.301242366733718 -14.7314764551722 -3.8834484853399354 -0.008428638359447066 0.008844754481185485 -0.002229515435389308 -0.009783959858150131 -10.718683793950824 -0.03484811552967682 
0.01590602426100898 -0.01669394114242087 -0.011595442671619976 0.023027053484636753 -0.011323883529512005 0.023668534641199127 4.804938165464341 2.3386824132434945 -2.1252115508869043 -0.6840255072636852 3.502840062826594 0.42107960542602546 -0.6749651285294218 -1.2007300793342464 1.4774709587147064 -0.18116039980806983 -0.4074036583001975 -0.24914966222902657 0.6142863260257652 11.92845267659617 -3.049688879972904 0.3470801736339925 -0.5007974970759475 -7.956565352496237 1.4145278974892628 -16.758207283421605 -0.7021161924454067 -9.527837531069347 3.4310567646133925 -16.458001438303803 78.19947138848462 18.997237357291194 14.68278748461342 22.429530830716065 6.773707398417013 88.39872559361335 17.722746952648734 -0.4326389878251084 -6.209639378504864 4.514279231024266 -0.17199062961800957 -1.5642235544319836 0.032426123589654014 0.02815393029393773 -56.266693232186576 -0.029184941491897747 0.039116221017633374 -56.18993272303588 -38.76116303773673 -0.0019727477872933372 -0.021782537870344378 -0.007806981608163528 0.047113856948849446 -0.0364419216325642 0.042034084210719934 0.03350471954118711 -0.032664578665018616 -36.68256755199361 0.029733231257166978 0.010155841648075635 -0.002750036635730963 0.03565068239955558 0.0489992042190634 -0.006306548996313582 -0.022408104908062644 0.02621392828622293 -19.77274233219687 -0.011766312059682732 -0.008527744309601265 0.03684383049997923 0.043844281803947324 0.03175800559400052 -0.0454674906716743 -0.02783192993038694 -0.020091251699154593 24.01837819338854 -0.021676126817112236 0.043415973113510024 28.90086254777826 -0.027641280748278627 0.03366823874960382 28.90183191132491 0.04686981016528842 -0.006710911811207857 8.750677781095268 2.1835447151917022 14.172465908341467 -75.19640442525132 25.229494890235852 -10.683211247065316 -24.241010893725754 6.806198417355191 -77.48128297247521 -22.986157746734808 -7.863250696081858 5.6663196681121955 -0.4792064166540458 0.02727379855982623 -8.118768970509997 0.0498375192504692 -0.006114297244366851 44.56161864205104 -0.0023621986902687027 0.02365100906418538 44.54310037821528 12.469783624611802 -0.01690607105968733 -0.01307528618520875 -0.009565186022532968 0.02197907440693813 0.028393376586690205 -0.04982401459862791 -0.045294175258426654 0.038064965263766445 11.069208270105314 -0.049484932297230604 0.03213985138268504 0.014190088890555484 0.03346780689190115 0.009847688590729672 0.03296439376954911 0.015109169420164879 -0.03563090965400191 4.732567125735918 -0.0021725843665801386 -0.013616656632352802 0.0423050585376339 -0.007383047541622112 0.0008792557359977942 -0.02427696445662097 -0.041620641973064934 -0.011319868506713411 -5.600107890791473 -0.0019973233171619205 -0.020870747026691297 -6.687157746363891 0.004001043890419732 0.02919898068330761 -6.741593075242466 -0.028643005448050426 0.0012704004703057864 0.017889786149332048 -0.0265250830317536 -0.035380858376654646 8.02309709455631 3.5217230901389724 -19.247443526113805 -0.02162928415510839 10.433291600687156 0.027706342385016822 -5.644068908808932 -15.676956207277946 3.2406047783159972 0.013613173471772289 0.009658804714604594 -0.018603793389873696 -0.01160261404382399 4.7268391654211035 -0.02194041093693108 12.456675503710317 -8.206634427938186 6.837366153800204 0.016951601687181635 46.424807214392004 -0.007269333289938092 -4.338594110684302 -14.717004357967182 -3.853237512244983 -0.03841180246075086 0.012865145855628986 0.01508884729848689 -0.0018760522358487893 -10.78649625427025 -0.031153540866594512 
-0.02565174315733005 -0.0339338344254826 0.010740543271599587 -0.022685408281635674 -0.04081999048618529 -0.022207311761649882 4.790818417963943 2.302985035402666 -2.2306196446237183 -0.6592172534556497 3.4572313460807678 0.3801593171802268 -0.6475472242440119 -1.1937075355864053 1.4831799681701567 -0.30687742038104643 -0.43408249019038553 -0.23138895071781057 0.5833006781565045 11.904168970035709 -2.6722663951877434 0.37277191726089937 -0.45895024974170695 -7.106295219583887 1.3825189179974915 -16.696843226237995 -0.611596724125673 -9.588206080761761 3.4233571335557125 -16.694598066603426 79.38752335986112 18.984723062495995 13.49788268147087 17.494102151767056 5.247210655063166 90.01331828177342 17.265866901591924 -0.505718930887788 -5.5289726815530225 4.565809778421438 -0.11376086904820173 -1.6411024305218134 0.01351781620403196 -0.008985102275088891 -56.21701251059705 -0.040298355620454626 -0.005228136693276778 -56.255911437111735 -38.79676632300625 -0.030179495026488198 0.03557680424806536 -0.003312440902911044 0.03889521081888355 0.03836551615471064 0.01729342432512691 -0.04172569767326713 0.0029493731591514315 -36.649855278350394 0.04352762509414024 -0.023001048735088722 -0.013708027944066503 0.0007568717953382818 0.02499448540628297 -0.008998706061016269 -0.026728483688252775 -0.026396163021960576 -19.78111111747192 -0.028988187970408426 0.00032584960464040655 0.03374950929075276 -0.004742275966634778 0.04203670975420708 -0.03881071824561847 0.037950175805580785 0.04733920382071988 24.042314127259534 0.015244495855526643 0.004728204386365612 28.832494451657436 0.04031527810893244 0.03291609016399984 28.863289256046723 0.027795917515370062 -0.018435070610356773 9.018242207418073 2.2126615896097745 14.340142923900759 -75.80070304789844 25.188979830789577 -10.404728173772886 -23.76498169392719 7.123828884726225 -77.54090382735767 -22.636532366265666 -8.07608587434969 5.738588138934273 -0.45719362201846725 0.040816235137194776 -8.13791326967982 0.009048542903739167 -0.03695814022656593 44.59344625397432 0.0010837476553351812 0.03183999892919852 44.61099103949613 12.426261246995956 0.00021936743219797225 -0.013015621117217623 -0.03379485695516995 0.0007914982989502562 0.009403711585998271 -0.03710145380291118 0.0191439905556413 -0.013716202883545919 11.127914666967007 -0.03546940572611385 0.012442360438465347 0.04646368941495528 0.04843460494622372 -0.019220064591271582 -0.011835461147528079 -0.013472601503687134 -0.003383464819252222 4.777529257801273 0.015977489022248458 0.013639756955516136 -0.0008203239037416613 0.038990026609592325 0.0434723496020389 0.007624794673480634 -0.03404592581149382 0.00358621470841885 -5.56091376548624 0.009636175951027472 -0.021906027976813906 -6.729276508943339 -0.02848792710354941 -0.01740703258478632 -6.681796607170487 -0.004018826790017324 -0.008812294610916371 -0.03727012219275629 -0.04069718985690786 0.04382547386330089 8.090564854255467 3.4739423498220376 -19.18512029021937 0.029014954457937583 10.40092568920918 -0.0308285472695272 -5.6375999748188015 -15.679351882597798 3.1817040583288665 0.014691203008110432 -0.009982576901290714 0.00579826284047226 0.01961084952100907 4.653362369199532 -0.027649250381512242 12.431207546512708 -8.27604654746672 6.902054816633303 0.04286007980477233 46.399669152630544 0.04089646784890723 -4.3156810501868605 -14.762242931009016 -3.819640294173147 -0.013124767803515456 0.0021603586833961034 -0.016894275780372746 0.009545141331138549 -10.707587988839677 -0.025496252617862813 
